<svg width="20" height="20" viewBox="0 0 20 20" fill="none" xmlns="http://www.w3.org/2000/svg">
<path d="M4.58337 6.66666H5.00004V7.08333C5.00004 7.30434 5.08784 7.5163 5.24412 7.67258C5.4004 7.82886 5.61236 7.91666 5.83337 7.91666C6.05439 7.91666 6.26635 7.82886 6.42263 7.67258C6.57891 7.5163 6.66671 7.30434 6.66671 7.08333V6.66666H7.08337C7.30439 6.66666 7.51635 6.57886 7.67263 6.42258C7.82891 6.2663 7.91671 6.05434 7.91671 5.83333C7.91671 5.61231 7.82891 5.40035 7.67263 5.24407C7.51635 5.08779 7.30439 4.99999 7.08337 4.99999H6.66671V4.58333C6.66671 4.36231 6.57891 4.15035 6.42263 3.99407C6.26635 3.83779 6.05439 3.74999 5.83337 3.74999C5.61236 3.74999 5.4004 3.83779 5.24412 3.99407C5.08784 4.15035 5.00004 4.36231 5.00004 4.58333V4.99999H4.58337C4.36236 4.99999 4.1504 5.08779 3.99412 5.24407C3.83784 5.40035 3.75004 5.61231 3.75004 5.83333C3.75004 6.05434 3.83784 6.2663 3.99412 6.42258C4.1504 6.57886 4.36236 6.66666 4.58337 6.66666ZM4.06671 15.9333C4.22284 16.0885 4.43405 16.1757 4.65421 16.1757C4.87436 16.1757 5.08557 16.0885 5.24171 15.9333L5.83337 15.3417L6.42504 15.9333C6.58118 16.0885 6.79239 16.1757 7.01254 16.1757C7.23269 16.1757 7.4439 16.0885 7.60004 15.9333C7.75525 15.7772 7.84237 15.566 7.84237 15.3458C7.84237 15.1257 7.75525 14.9145 7.60004 14.7583L7.00837 14.1667L7.60004 13.575C7.73656 13.4156 7.8079 13.2105 7.7998 13.0008C7.7917 12.7911 7.70475 12.5921 7.55634 12.4437C7.40793 12.2953 7.20898 12.2083 6.99925 12.2002C6.78952 12.1921 6.58446 12.2635 6.42504 12.4L5.83337 12.9917L5.24171 12.4C5.08229 12.2635 4.87723 12.1921 4.6675 12.2002C4.45777 12.2083 4.25882 12.2953 4.1104 12.4437C3.96199 12.5921 3.87505 12.7911 3.86695 13.0008C3.85885 13.2105 3.93019 13.4156 4.06671 13.575L4.65837 14.1667L4.06671 14.7583C3.9115 14.9145 3.82438 15.1257 3.82438 15.3458C3.82438 15.566 3.9115 15.7772 4.06671 15.9333ZM16.6667 0.833328H3.33337C2.67033 0.833328 2.03445 1.09672 1.56561 1.56556C1.09677 2.0344 0.833374 2.67029 0.833374 3.33333V16.6667C0.833374 17.3297 1.09677 17.9656 1.56561 18.4344C2.03445 18.9033 2.67033 19.1667 3.33337 19.1667H16.6667C17.3297 19.1667 17.9656 18.9033 18.4345 18.4344C18.9033 17.9656 19.1667 17.3297 19.1667 16.6667V3.33333C19.1667 2.67029 18.9033 2.0344 18.4345 1.56556C17.9656 1.09672 17.3297 0.833328 16.6667 0.833328ZM9.16671 17.5H3.33337C3.11236 17.5 2.9004 17.4122 2.74412 17.2559C2.58784 17.0996 2.50004 16.8877 2.50004 16.6667V10.8333H9.16671V17.5ZM9.16671 9.16666H2.50004V3.33333C2.50004 3.11231 2.58784 2.90035 2.74412 2.74407C2.9004 2.58779 3.11236 2.49999 3.33337 2.49999H9.16671V9.16666ZM17.5 16.6667C17.5 16.8877 17.4122 17.0996 17.256 17.2559C17.0997 17.4122 16.8877 17.5 16.6667 17.5H10.8334V10.8333H17.5V16.6667ZM17.5 9.16666H10.8334V2.49999H16.6667C16.8877 2.49999 17.0997 2.58779 17.256 2.74407C17.4122 2.90035 17.5 3.11231 17.5 3.33333V9.16666ZM12.9167 13.75H15.4167C15.6377 13.75 15.8497 13.6622 16.006 13.5059C16.1622 13.3496 16.25 13.1377 16.25 12.9167C16.25 12.6956 16.1622 12.4837 16.006 12.3274C15.8497 12.1711 15.6377 12.0833 15.4167 12.0833H12.9167C12.6957 12.0833 12.4837 12.1711 12.3275 12.3274C12.1712 12.4837 12.0834 12.6956 12.0834 12.9167C12.0834 13.1377 12.1712 13.3496 12.3275 13.5059C12.4837 13.6622 12.6957 13.75 12.9167 13.75ZM15.4167 4.99999H12.9167C12.6957 4.99999 12.4837 5.08779 12.3275 5.24407C12.1712 5.40035 12.0834 5.61231 12.0834 5.83333C12.0834 6.05434 12.1712 6.2663 12.3275 6.42258C12.4837 6.57886 12.6957 6.66666 12.9167 6.66666H15.4167C15.6377 6.66666 15.8497 6.57886 16.006 6.42258C16.1622 6.2663 16.25 6.05434 16.25 5.83333C16.25 5.61231 16.1622 5.40035 16.006 5.24407C15.8497 5.08779 15.6377 4.99999 15.4167 4.99999ZM12.9167 16.25H15.4167C15.6377 16.25 15.8497 16.1622 16.006 16.0059C16.1622 15.8496 16.25 15.6377 16.25 15.4167C16.25 15.1956 16.1622 14.9837 16.006 14.8274C15.8497 14.6711 15.6377 14.5833 15.4167 14.5833H12.9167C12.6957 14.5833 12.4837 14.6711 12.3275 14.8274C12.1712 14.9837 12.0834 15.1956 12.0834 15.4167C12.0834 15.6377 12.1712 15.8496 12.3275 16.0059C12.4837 16.1622 12.6957 16.25 12.9167 16.25Z" fill="#006048"/>
</svg>
