<svg width="17" height="18" viewBox="0 0 17 18" fill="none" xmlns="http://www.w3.org/2000/svg">
<path d="M4.83333 12.3333C5.16485 12.3333 5.4828 12.2016 5.71722 11.9672C5.95164 11.7328 6.08333 11.4149 6.08333 11.0833C6.0874 11.0418 6.0874 10.9999 6.08333 10.9583L8.40833 8.63334H8.79167L10.1333 9.97501V10.0417C10.1333 10.3732 10.265 10.6911 10.4994 10.9256C10.7339 11.16 11.0518 11.2917 11.3833 11.2917C11.7149 11.2917 12.0328 11.16 12.2672 10.9256C12.5016 10.6911 12.6333 10.3732 12.6333 10.0417V9.97501L15.6667 6.91667C15.9139 6.91667 16.1556 6.84336 16.3611 6.70601C16.5667 6.56866 16.7269 6.37343 16.8215 6.14503C16.9161 5.91662 16.9409 5.66529 16.8926 5.42281C16.8444 5.18033 16.7254 4.9576 16.5505 4.78279C16.3757 4.60797 16.153 4.48892 15.9105 4.44069C15.6681 4.39246 15.4167 4.41721 15.1883 4.51182C14.9599 4.60643 14.7647 4.76665 14.6273 4.97221C14.49 5.17777 14.4167 5.41945 14.4167 5.66667C14.4126 5.70824 14.4126 5.7501 14.4167 5.79167L11.4083 8.80001H11.275L9.83333 7.33334C9.83333 7.00182 9.70164 6.68388 9.46722 6.44946C9.2328 6.21503 8.91485 6.08334 8.58333 6.08334C8.25181 6.08334 7.93387 6.21503 7.69945 6.44946C7.46503 6.68388 7.33333 7.00182 7.33333 7.33334L4.83333 9.83334C4.50181 9.83334 4.18387 9.96503 3.94945 10.1995C3.71503 10.4339 3.58333 10.7518 3.58333 11.0833C3.58333 11.4149 3.71503 11.7328 3.94945 11.9672C4.18387 12.2016 4.50181 12.3333 4.83333 12.3333ZM16.0833 15.6667H1.91667V1.50001C1.91667 1.27899 1.82887 1.06703 1.67259 0.910749C1.51631 0.754469 1.30435 0.666672 1.08333 0.666672C0.86232 0.666672 0.650358 0.754469 0.494078 0.910749C0.337797 1.06703 0.25 1.27899 0.25 1.50001V16.5C0.25 16.721 0.337797 16.933 0.494078 17.0893C0.650358 17.2455 0.86232 17.3333 1.08333 17.3333H16.0833C16.3043 17.3333 16.5163 17.2455 16.6726 17.0893C16.8289 16.933 16.9167 16.721 16.9167 16.5C16.9167 16.279 16.8289 16.067 16.6726 15.9107C16.5163 15.7545 16.3043 15.6667 16.0833 15.6667Z" fill="#006048"/>
</svg>
