<svg width="20" height="20" viewBox="0 0 20 20" fill="none" xmlns="http://www.w3.org/2000/svg">
<path d="M3.33329 3.33333H16.6666C17.1087 3.33333 17.5326 3.50892 17.8451 3.82148C18.1577 4.13404 18.3333 4.55797 18.3333 4.99999V15C18.3333 15.442 18.1577 15.8659 17.8451 16.1785C17.5326 16.4911 17.1087 16.6667 16.6666 16.6667H3.33329C2.89127 16.6667 2.46734 16.4911 2.15478 16.1785C1.84222 15.8659 1.66663 15.442 1.66663 15V4.99999C1.66663 4.55797 1.84222 4.13404 2.15478 3.82148C2.46734 3.50892 2.89127 3.33333 3.33329 3.33333ZM13.3333 4.99999V15H16.6666V4.99999H13.3333ZM3.33329 4.99999V15H6.66663V4.99999H3.33329ZM8.33329 4.99999V15H11.6666V4.99999H8.33329Z" fill="#006048"/>
<rect x="13" y="5" width="4" height="10" fill="#C7DFD9"/>
</svg>
