<svg width="14" height="18" viewBox="0 0 14 18" fill="none" xmlns="http://www.w3.org/2000/svg">
<path d="M12 0.666672H3.66671C2.78265 0.666672 1.93481 1.01786 1.30968 1.64298C0.684563 2.2681 0.333374 3.11595 0.333374 4.00001V14C0.333374 14.8841 0.684563 15.7319 1.30968 16.357C1.93481 16.9821 2.78265 17.3333 3.66671 17.3333H12C12.4421 17.3333 12.866 17.1577 13.1786 16.8452C13.4911 16.5326 13.6667 16.1087 13.6667 15.6667V2.33334C13.6667 1.89131 13.4911 1.46739 13.1786 1.15483C12.866 0.842266 12.4421 0.666672 12 0.666672ZM2.00004 4.00001C2.00004 3.55798 2.17564 3.13405 2.4882 2.82149C2.80076 2.50893 3.22468 2.33334 3.66671 2.33334H12V10.6667H3.66671C3.07924 10.6691 2.50337 10.8304 2.00004 11.1333V4.00001ZM3.66671 15.6667C3.22468 15.6667 2.80076 15.4911 2.4882 15.1785C2.17564 14.866 2.00004 14.442 2.00004 14C2.00004 13.558 2.17564 13.1341 2.4882 12.8215C2.80076 12.5089 3.22468 12.3333 3.66671 12.3333H12V15.6667H3.66671Z" fill="#006048"/>
</svg>
