<svg width="20" height="20" viewBox="0 0 20 20" fill="none" xmlns="http://www.w3.org/2000/svg">
<path d="M10.0001 17.5H2.50005C2.33329 17.51 2.16629 17.4846 2.01009 17.4253C1.85389 17.366 1.71204 17.2743 1.59391 17.1562C1.47577 17.038 1.38404 16.8962 1.32477 16.74C1.26549 16.5838 1.24003 16.4168 1.25005 16.25V8.75001C1.24003 8.58324 1.26549 8.41624 1.32477 8.26004C1.38404 8.10384 1.47577 7.96199 1.59391 7.84386C1.71204 7.72572 1.85389 7.63399 2.01009 7.57472C2.16629 7.51545 2.33329 7.48998 2.50005 7.50001H10.0001C10.1668 7.48998 10.3338 7.51545 10.49 7.57472C10.6462 7.63399 10.7881 7.72572 10.9062 7.84386C11.0243 7.96199 11.1161 8.10384 11.1753 8.26004C11.2346 8.41624 11.2601 8.58324 11.2501 8.75001V16.25C11.2601 16.4168 11.2346 16.5838 11.1753 16.74C11.1161 16.8962 11.0243 17.038 10.9062 17.1562C10.7881 17.2743 10.6462 17.366 10.49 17.4253C10.3338 17.4846 10.1668 17.51 10.0001 17.5ZM2.50005 8.75001V16.25H10.0001V8.75001H2.50005Z" fill="#006048"/>
<path d="M13.75 11.875H12.5V6.25001H6.25V5.00001H12.5C12.6668 4.98998 12.8338 5.01545 12.99 5.07472C13.1462 5.13399 13.288 5.22572 13.4061 5.34386C13.5243 5.46199 13.616 5.60384 13.6753 5.76004C13.7346 5.91624 13.76 6.08324 13.75 6.25001V11.875Z" fill="#006048"/>
<path d="M16.25 8.75001H15V3.75001H10V2.50001H15C15.1668 2.48998 15.3338 2.51545 15.49 2.57472C15.6462 2.63399 15.788 2.72572 15.9061 2.84386C16.0243 2.96199 16.116 3.10384 16.1753 3.26004C16.2346 3.41624 16.26 3.58324 16.25 3.75001V8.75001Z" fill="#006048"/>
<path d="M15 10.625V11.875H16.75L13.75 15.25V13.75H12.5V17.5H16.25V16.25H14.5L17.5 12.875V14.375H18.75V10.625H15Z" fill="#006048"/>
</svg>
