<svg width="14" height="18" viewBox="0 0 14 18" fill="none" xmlns="http://www.w3.org/2000/svg">
<path d="M0.333313 9.00001C0.333313 9.22102 0.421111 9.43298 0.577391 9.58926C0.733671 9.74554 0.945633 9.83334 1.16665 9.83334H7.49165L5.57498 11.7417C5.49687 11.8191 5.43488 11.9113 5.39257 12.0129C5.35026 12.1144 5.32848 12.2233 5.32848 12.3333C5.32848 12.4433 5.35026 12.5523 5.39257 12.6538C5.43488 12.7554 5.49687 12.8475 5.57498 12.925C5.65245 13.0031 5.74462 13.0651 5.84617 13.1074C5.94771 13.1497 6.05664 13.1715 6.16665 13.1715C6.27666 13.1715 6.38558 13.1497 6.48713 13.1074C6.58868 13.0651 6.68084 13.0031 6.75831 12.925L10.0916 9.59167C10.1675 9.51242 10.227 9.41897 10.2666 9.31667C10.35 9.11379 10.35 8.88622 10.2666 8.68334C10.227 8.58105 10.1675 8.48759 10.0916 8.40834L6.75831 5.07501C6.68061 4.99731 6.58837 4.93567 6.48685 4.89362C6.38534 4.85157 6.27653 4.82993 6.16665 4.82993C6.05676 4.82993 5.94796 4.85157 5.84644 4.89362C5.74492 4.93567 5.65268 4.99731 5.57498 5.07501C5.49728 5.1527 5.43565 5.24495 5.3936 5.34646C5.35155 5.44798 5.3299 5.55679 5.3299 5.66667C5.3299 5.77655 5.35155 5.88536 5.3936 5.98688C5.43565 6.0884 5.49728 6.18064 5.57498 6.25834L7.49165 8.16667H1.16665C0.945633 8.16667 0.733671 8.25447 0.577391 8.41075C0.421111 8.56703 0.333313 8.77899 0.333313 9.00001ZM11.1666 0.666672H2.83331C2.17027 0.666672 1.53439 0.930064 1.06555 1.3989C0.596705 1.86775 0.333313 2.50363 0.333313 3.16667V5.66667C0.333313 5.88769 0.421111 6.09965 0.577391 6.25593C0.733671 6.41221 0.945633 6.50001 1.16665 6.50001C1.38766 6.50001 1.59962 6.41221 1.7559 6.25593C1.91218 6.09965 1.99998 5.88769 1.99998 5.66667V3.16667C1.99998 2.94566 2.08778 2.7337 2.24406 2.57742C2.40034 2.42114 2.6123 2.33334 2.83331 2.33334H11.1666C11.3877 2.33334 11.5996 2.42114 11.7559 2.57742C11.9122 2.7337 12 2.94566 12 3.16667V14.8333C12 15.0544 11.9122 15.2663 11.7559 15.4226C11.5996 15.5789 11.3877 15.6667 11.1666 15.6667H2.83331C2.6123 15.6667 2.40034 15.5789 2.24406 15.4226C2.08778 15.2663 1.99998 15.0544 1.99998 14.8333V12.3333C1.99998 12.1123 1.91218 11.9004 1.7559 11.7441C1.59962 11.5878 1.38766 11.5 1.16665 11.5C0.945633 11.5 0.733671 11.5878 0.577391 11.7441C0.421111 11.9004 0.333313 12.1123 0.333313 12.3333V14.8333C0.333313 15.4964 0.596705 16.1323 1.06555 16.6011C1.53439 17.0699 2.17027 17.3333 2.83331 17.3333H11.1666C11.8297 17.3333 12.4656 17.0699 12.9344 16.6011C13.4033 16.1323 13.6666 15.4964 13.6666 14.8333V3.16667C13.6666 2.50363 13.4033 1.86775 12.9344 1.3989C12.4656 0.930064 11.8297 0.666672 11.1666 0.666672Z" fill="#006048"/>
</svg>
