<svg width="20" height="20" viewBox="0 0 20 20" fill="none" xmlns="http://www.w3.org/2000/svg">
<path d="M15.8334 1.66667H4.16669C3.50365 1.66667 2.86776 1.93006 2.39892 2.3989C1.93008 2.86775 1.66669 3.50363 1.66669 4.16667V5.14167C1.66657 5.48579 1.73749 5.82623 1.87502 6.14167V6.19167C1.99275 6.45915 2.15951 6.70222 2.36669 6.90834L7.50002 12.0083V17.5C7.49974 17.6416 7.53555 17.781 7.60408 17.9049C7.67261 18.0289 7.77159 18.1333 7.89169 18.2083C8.02431 18.2905 8.17733 18.3338 8.33335 18.3333C8.46381 18.3326 8.59225 18.3012 8.70835 18.2417L12.0417 16.575C12.1791 16.5058 12.2947 16.3998 12.3756 16.2689C12.4565 16.138 12.4996 15.9872 12.5 15.8333V12.0083L17.6 6.90834C17.8072 6.70222 17.974 6.45915 18.0917 6.19167V6.14167C18.2407 5.8287 18.323 5.48815 18.3334 5.14167V4.16667C18.3334 3.50363 18.07 2.86775 17.6011 2.3989C17.1323 1.93006 16.4964 1.66667 15.8334 1.66667ZM11.075 11.075C10.9978 11.1529 10.9367 11.2452 10.8952 11.3468C10.8537 11.4483 10.8327 11.557 10.8334 11.6667V15.3167L9.16669 16.15V11.6667C9.16732 11.557 9.1463 11.4483 9.10483 11.3468C9.06336 11.2452 9.00226 11.1529 8.92502 11.075L4.50835 6.66667H15.4917L11.075 11.075ZM16.6667 5.00001H3.33335V4.16667C3.33335 3.94566 3.42115 3.7337 3.57743 3.57742C3.73371 3.42114 3.94567 3.33334 4.16669 3.33334H15.8334C16.0544 3.33334 16.2663 3.42114 16.4226 3.57742C16.5789 3.7337 16.6667 3.94566 16.6667 4.16667V5.00001Z" fill="#006048"/>
</svg>
