<svg width="18" height="18" viewBox="0 0 18 18" fill="none" xmlns="http://www.w3.org/2000/svg">
<path d="M2.10126 3.50862L2.10124 3.50864C1.68017 3.93343 1.44922 4.49439 1.44922 5.09258V15.1875C1.44922 16.4622 2.487 17.5 3.76172 17.5H6.57422C6.68644 17.5 6.77734 17.4091 6.77734 17.2969C6.77734 17.1847 6.68644 17.0938 6.57422 17.0938H3.76172C2.71022 17.0938 1.85547 16.239 1.85547 15.1875V5.94141V5.44141H2.35547H4.42969C5.51049 5.44141 6.39062 4.56128 6.39062 3.48047C6.39062 3.36824 6.29972 3.27734 6.1875 3.27734C6.07528 3.27734 5.98438 3.36824 5.98438 3.48047C5.98438 4.33802 5.28746 5.03516 4.42969 5.03516H2.47618H1.69887L2.02119 4.32783C2.11054 4.13175 2.23451 3.95117 2.38982 3.79453L2.10126 3.50862ZM2.10126 3.50862L4.42307 1.16608C4.42307 1.16608 4.42308 1.16607 4.42308 1.16606C4.84198 0.743471 5.42605 0.5 6.02119 0.5H12.4063C13.6809 0.5 14.7188 1.5378 14.7188 2.8125V6.53906C14.7188 6.65122 14.6278 6.74219 14.5157 6.74219C14.4035 6.74219 14.3126 6.65129 14.3126 6.53906V2.8125C14.3126 1.761 13.4578 0.90625 12.4063 0.90625H6.02119C5.53194 0.90625 5.05608 1.1045 4.71165 1.4521C4.71162 1.45213 4.71159 1.45216 4.71157 1.45218L2.38989 3.79445L2.10126 3.50862ZM13.0078 13.457H12.5078V13.957V14.6602C12.5078 14.7724 12.4169 14.8633 12.3047 14.8633C12.1925 14.8633 12.1016 14.7724 12.1016 14.6602V13.957V13.457H11.6016H10.8984C10.7862 13.457 10.6953 13.3661 10.6953 13.2539C10.6953 13.1417 10.7862 13.0508 10.8984 13.0508H11.6016H12.1016V12.5508V11.8477C12.1016 11.7354 12.1925 11.6445 12.3047 11.6445C12.4169 11.6445 12.5078 11.7354 12.5078 11.8477V12.5508V13.0508H13.0078H13.7109C13.8232 13.0508 13.9141 13.1417 13.9141 13.2539C13.9141 13.3661 13.8232 13.457 13.7109 13.457H13.0078ZM8.05859 13.2539C8.05859 10.9131 9.96389 9.00781 12.3047 9.00781C14.6455 9.00781 16.5508 10.9131 16.5508 13.2539C16.5508 15.5947 14.6455 17.5 12.3047 17.5C9.96389 17.5 8.05859 15.5947 8.05859 13.2539ZM8.46484 13.2539C8.46484 15.3716 10.187 17.0938 12.3047 17.0938C14.4224 17.0938 16.1445 15.3716 16.1445 13.2539C16.1445 11.1362 14.4224 9.41406 12.3047 9.41406C10.187 9.41406 8.46484 11.1362 8.46484 13.2539Z" fill="#006048" stroke="#006048"/>
</svg>
