<svg width="20" height="20" viewBox="0 0 20 20" fill="none" xmlns="http://www.w3.org/2000/svg">
<path d="M17.4333 13.0167C17.3911 12.9157 17.3319 12.8227 17.2583 12.7417L14.7583 10.2417C14.6014 10.0848 14.3886 9.9966 14.1667 9.9966C13.9447 9.9966 13.7319 10.0848 13.575 10.2417C13.4181 10.3986 13.3299 10.6114 13.3299 10.8333C13.3299 11.0553 13.4181 11.2681 13.575 11.425L14.6583 12.5H10C9.77899 12.5 9.56703 12.5878 9.41074 12.7441C9.25446 12.9004 9.16667 13.1123 9.16667 13.3333C9.16667 13.5544 9.25446 13.7663 9.41074 13.9226C9.56703 14.0789 9.77899 14.1667 10 14.1667H14.6583L13.575 15.2417C13.4969 15.3191 13.4349 15.4113 13.3926 15.5129C13.3503 15.6144 13.3285 15.7233 13.3285 15.8333C13.3285 15.9433 13.3503 16.0523 13.3926 16.1538C13.4349 16.2554 13.4969 16.3475 13.575 16.425C13.6525 16.5031 13.7446 16.5651 13.8462 16.6074C13.9477 16.6497 14.0567 16.6715 14.1667 16.6715C14.2767 16.6715 14.3856 16.6497 14.4871 16.6074C14.5887 16.5651 14.6809 16.5031 14.7583 16.425L17.2583 13.925C17.3355 13.8468 17.3952 13.753 17.4333 13.65C17.5167 13.4471 17.5167 13.2196 17.4333 13.0167ZM11.6667 16.6667H5C4.77899 16.6667 4.56702 16.5789 4.41074 16.4226C4.25446 16.2663 4.16667 16.0544 4.16667 15.8333V4.16667C4.16667 3.94566 4.25446 3.7337 4.41074 3.57742C4.56702 3.42114 4.77899 3.33334 5 3.33334H9.16667V5.83334C9.16667 6.49638 9.43006 7.13227 9.8989 7.60111C10.3677 8.06995 11.0036 8.33334 11.6667 8.33334H15C15.1645 8.33252 15.3251 8.28302 15.4616 8.19107C15.598 8.09913 15.7042 7.96885 15.7667 7.81667C15.8305 7.66491 15.8479 7.49765 15.8168 7.33599C15.7856 7.17434 15.7073 7.02553 15.5917 6.90834L10.5917 1.90834C10.5228 1.84352 10.444 1.79007 10.3583 1.75001H10.2833L10.05 1.66667H5C4.33696 1.66667 3.70107 1.93006 3.23223 2.3989C2.76339 2.86775 2.5 3.50363 2.5 4.16667V15.8333C2.5 16.4964 2.76339 17.1323 3.23223 17.6011C3.70107 18.0699 4.33696 18.3333 5 18.3333H11.6667C11.8877 18.3333 12.0996 18.2455 12.2559 18.0893C12.4122 17.933 12.5 17.721 12.5 17.5C12.5 17.279 12.4122 17.067 12.2559 16.9107C12.0996 16.7545 11.8877 16.6667 11.6667 16.6667ZM10.8333 4.50834L12.9917 6.66667H11.6667C11.4457 6.66667 11.2337 6.57887 11.0774 6.42259C10.9211 6.26631 10.8333 6.05435 10.8333 5.83334V4.50834Z" fill="#006048"/>
</svg>
